%TF.GenerationSoftware,Altium Limited,Altium Designer,24.7.2 (38)*%
G04 Layer_Color=65535*
%FSLAX45Y45*%
%MOMM*%
%TF.SameCoordinates,74662405-AD21-4814-813C-A76D1C426129*%
%TF.FilePolarity,Positive*%
%TF.FileFunction,Legend,Top*%
%TF.Part,Single*%
G01*
G75*
%TA.AperFunction,NonConductor*%
%ADD35C,0.60000*%
%ADD36C,0.25000*%
%ADD37C,0.20000*%
%ADD38C,0.24000*%
%ADD39C,0.12700*%
%ADD40C,0.10000*%
%ADD41C,0.30000*%
%ADD42C,0.30480*%
%ADD43C,0.25400*%
D35*
X10168600Y9931500D02*
G03*
X10168600Y9931500I-30000J0D01*
G01*
X10054300Y3403700D02*
G03*
X10054300Y3403700I-30000J0D01*
G01*
D36*
X10017100Y9715500D02*
G03*
X10017100Y9715500I-12500J0D01*
G01*
X9902800Y3187700D02*
G03*
X9902800Y3187700I-12500J0D01*
G01*
X5983018Y16592300D02*
G03*
X5983018Y16592300I-12500J0D01*
G01*
D37*
X10038600Y10033000D02*
G03*
X10038600Y10160000I0J63500D01*
G01*
X4055300Y15668581D02*
G03*
X4075300Y15668581I10000J0D01*
G01*
D02*
G03*
X4055300Y15668581I-10000J0D01*
G01*
X7501700Y14236099D02*
G03*
X7501700Y14236099I-10000J0D01*
G01*
X4762980Y13777380D02*
G03*
X4762980Y13777380I-10000J0D01*
G01*
X9924300Y3505200D02*
G03*
X9924300Y3632200I0J63500D01*
G01*
X7134700Y16280000D02*
G03*
X7134700Y16280000I-10000J0D01*
G01*
X5204300Y16241901D02*
G03*
X5204300Y16241901I-10000J0D01*
G01*
X12008600Y9831500D02*
Y10361500D01*
X10038600Y10160000D02*
Y10361500D01*
Y9831500D02*
Y10033000D01*
Y10361500D02*
X12008600D01*
X10038600Y9831500D02*
X12008600D01*
X9924300Y3303700D02*
X11894300D01*
X9924300Y3833700D02*
X11894300D01*
X9924300Y3303700D02*
Y3505200D01*
Y3632200D02*
Y3833700D01*
X11894300Y3303700D02*
Y3833700D01*
X6191082Y16352299D02*
Y16642300D01*
X6190574Y16352299D02*
X6191082D01*
X6190574D02*
Y16642300D01*
X6191082D01*
X5007310Y15595390D02*
Y15926010D01*
X4771690Y15595390D02*
Y15926010D01*
D38*
X6278300Y6057900D02*
G03*
X6278300Y6057900I-12000J0D01*
G01*
X5795700Y3042100D02*
G03*
X5795700Y3042100I-12000J0D01*
G01*
X5819600Y9592100D02*
G03*
X5819600Y9592100I-12000J0D01*
G01*
X9029000D02*
G03*
X9029000Y9592100I-12000J0D01*
G01*
X12295700D02*
G03*
X12295700Y9592100I-12000J0D01*
G01*
X15545700D02*
G03*
X15545700Y9592100I-12000J0D01*
G01*
X9045700Y3042100D02*
G03*
X9045700Y3042100I-12000J0D01*
G01*
X12295700D02*
G03*
X12295700Y3042100I-12000J0D01*
G01*
X15545700D02*
G03*
X15545700Y3042100I-12000J0D01*
G01*
X16028300Y6057900D02*
G03*
X16028300Y6057900I-12000J0D01*
G01*
X12778300D02*
G03*
X12778300Y6057900I-12000J0D01*
G01*
X9528300D02*
G03*
X9528300Y6057900I-12000J0D01*
G01*
X16028300Y12407900D02*
G03*
X16028300Y12407900I-12000J0D01*
G01*
X12778300D02*
G03*
X12778300Y12407900I-12000J0D01*
G01*
X9537000D02*
G03*
X9537000Y12407900I-12000J0D01*
G01*
X6285800D02*
G03*
X6285800Y12407900I-12000J0D01*
G01*
D39*
X5562500Y7405700D02*
Y7605700D01*
X5740500Y7405700D02*
Y7605700D01*
X8839100Y7405700D02*
Y7605700D01*
X9017100Y7405700D02*
Y7605700D01*
X16027299Y10656900D02*
Y10856900D01*
X16205299Y10656900D02*
Y10856900D01*
X8864500Y10656900D02*
Y10856900D01*
X9042500Y10656900D02*
Y10856900D01*
X5549800Y10656900D02*
Y10856900D01*
X5727800Y10656900D02*
Y10856900D01*
X7333200Y17180560D02*
X7333200Y14391100D01*
X7333200Y17181100D02*
X12201700Y17181100D01*
Y14391100D02*
Y17181100D01*
X7333200Y14391100D02*
X12201700Y14391100D01*
X5758300Y6578600D02*
Y6604000D01*
X6291700Y6248400D02*
Y6451600D01*
Y6096000D02*
Y6121400D01*
X5758300Y6096000D02*
X6291700D01*
X5758300D02*
Y6121400D01*
Y6248400D02*
Y6451600D01*
Y6604000D02*
X6291700D01*
Y6578600D02*
Y6604000D01*
X6934300Y16422701D02*
Y16622701D01*
X6756300Y16422701D02*
Y16622701D01*
X5758300Y2496000D02*
Y2521400D01*
Y2496000D02*
X6291700D01*
Y2648400D02*
Y2851600D01*
Y2978600D02*
Y3004000D01*
X5758300D02*
X6291700D01*
X5758300Y2978600D02*
Y3004000D01*
Y2648400D02*
Y2851600D01*
X6291700Y2496000D02*
Y2521400D01*
X5782200Y9046000D02*
Y9071400D01*
Y9046000D02*
X6315600D01*
Y9198400D02*
Y9401600D01*
Y9528600D02*
Y9554000D01*
X5782200D02*
X6315600D01*
X5782200Y9528600D02*
Y9554000D01*
Y9198400D02*
Y9401600D01*
X6315600Y9046000D02*
Y9071400D01*
X8991600Y9046000D02*
Y9071400D01*
Y9046000D02*
X9525000D01*
Y9198400D02*
Y9401600D01*
Y9528600D02*
Y9554000D01*
X8991600D02*
X9525000D01*
X8991600Y9528600D02*
Y9554000D01*
Y9198400D02*
Y9401600D01*
X9525000Y9046000D02*
Y9071400D01*
X12258300Y9046000D02*
Y9071400D01*
Y9046000D02*
X12791700D01*
Y9198400D02*
Y9401600D01*
Y9528600D02*
Y9554000D01*
X12258300D02*
X12791700D01*
X12258300Y9528600D02*
Y9554000D01*
Y9198400D02*
Y9401600D01*
X12791700Y9046000D02*
Y9071400D01*
X15508299Y9046000D02*
Y9071400D01*
Y9046000D02*
X16041701D01*
Y9198400D02*
Y9401600D01*
Y9528600D02*
Y9554000D01*
X15508299D02*
X16041701D01*
X15508299Y9528600D02*
Y9554000D01*
Y9198400D02*
Y9401600D01*
X16041701Y9046000D02*
Y9071400D01*
X9008300Y2496000D02*
Y2521400D01*
Y2496000D02*
X9541700D01*
Y2648400D02*
Y2851600D01*
Y2978600D02*
Y3004000D01*
X9008300D02*
X9541700D01*
X9008300Y2978600D02*
Y3004000D01*
Y2648400D02*
Y2851600D01*
X9541700Y2496000D02*
Y2521400D01*
X12258300Y2496000D02*
Y2521400D01*
Y2496000D02*
X12791700D01*
Y2648400D02*
Y2851600D01*
Y2978600D02*
Y3004000D01*
X12258300D02*
X12791700D01*
X12258300Y2978600D02*
Y3004000D01*
Y2648400D02*
Y2851600D01*
X12791700Y2496000D02*
Y2521400D01*
X15508299Y2496000D02*
Y2521400D01*
Y2496000D02*
X16041701D01*
Y2648400D02*
Y2851600D01*
Y2978600D02*
Y3004000D01*
X15508299D02*
X16041701D01*
X15508299Y2978600D02*
Y3004000D01*
Y2648400D02*
Y2851600D01*
X16041701Y2496000D02*
Y2521400D01*
Y6578600D02*
Y6604000D01*
X15508299D02*
X16041701D01*
X15508299Y6248400D02*
Y6451600D01*
Y6096000D02*
Y6121400D01*
Y6096000D02*
X16041701D01*
Y6121400D01*
Y6248400D02*
Y6451600D01*
X15508299Y6578600D02*
Y6604000D01*
X12791700Y6578600D02*
Y6604000D01*
X12258300D02*
X12791700D01*
X12258300Y6248400D02*
Y6451600D01*
Y6096000D02*
Y6121400D01*
Y6096000D02*
X12791700D01*
Y6121400D01*
Y6248400D02*
Y6451600D01*
X12258300Y6578600D02*
Y6604000D01*
X9541700Y6578600D02*
Y6604000D01*
X9008300D02*
X9541700D01*
X9008300Y6248400D02*
Y6451600D01*
Y6096000D02*
Y6121400D01*
Y6096000D02*
X9541700D01*
Y6121400D01*
Y6248400D02*
Y6451600D01*
X9008300Y6578600D02*
Y6604000D01*
X16041701Y12928600D02*
Y12953999D01*
X15508299D02*
X16041701D01*
X15508299Y12598400D02*
Y12801601D01*
Y12446000D02*
Y12471400D01*
Y12446000D02*
X16041701D01*
Y12471400D01*
Y12598400D02*
Y12801601D01*
X15508299Y12928600D02*
Y12953999D01*
X12791700Y12928600D02*
Y12953999D01*
X12258300D02*
X12791700D01*
X12258300Y12598400D02*
Y12801601D01*
Y12446000D02*
Y12471400D01*
Y12446000D02*
X12791700D01*
Y12471400D01*
Y12598400D02*
Y12801601D01*
X12258300Y12928600D02*
Y12953999D01*
X9550400Y12928600D02*
Y12953999D01*
X9017000D02*
X9550400D01*
X9017000Y12598400D02*
Y12801601D01*
Y12446000D02*
Y12471400D01*
Y12446000D02*
X9550400D01*
Y12471400D01*
Y12598400D02*
Y12801601D01*
X9017000Y12928600D02*
Y12953999D01*
X6299200Y12928600D02*
Y12953999D01*
X5765800D02*
X6299200D01*
X5765800Y12598400D02*
Y12801601D01*
Y12446000D02*
Y12471400D01*
Y12446000D02*
X6299200D01*
Y12471400D01*
Y12598400D02*
Y12801601D01*
X5765800Y12928600D02*
Y12953999D01*
X7062200Y16487000D02*
Y16533000D01*
X7187200Y16487000D02*
Y16533000D01*
X7124700Y16487000D02*
Y16533000D01*
X7106739Y16504961D02*
X7124700Y16487000D01*
X7142661Y16504961D01*
X5131800Y16448900D02*
Y16494901D01*
X5256800Y16448900D02*
Y16494901D01*
X5194300Y16448900D02*
Y16494901D01*
X5176339Y16466861D02*
X5194300Y16448900D01*
X5212261Y16466861D01*
X5410100Y16397301D02*
Y16597301D01*
X5588100Y16397301D02*
Y16597301D01*
X9004400Y4154500D02*
Y4354500D01*
X8826400Y4154500D02*
Y4354500D01*
X5727800Y903300D02*
Y1103300D01*
X5549800Y903300D02*
Y1103300D01*
X9055200Y903300D02*
Y1103300D01*
X8877200Y903300D02*
Y1103300D01*
X12954100Y903300D02*
Y1103300D01*
X12776100Y903300D02*
Y1103300D01*
X12954100Y4154500D02*
Y4354500D01*
X12776100Y4154500D02*
Y4354500D01*
X12954100Y7405700D02*
Y7605700D01*
X12776100Y7405700D02*
Y7605700D01*
X12928700Y10656900D02*
Y10856900D01*
X12750700Y10656900D02*
Y10856900D01*
X16205299Y903300D02*
Y1103300D01*
X16027299Y903300D02*
Y1103300D01*
X4433900Y16535500D02*
X4633900D01*
X4433900Y16357500D02*
X4633900D01*
X4433900Y16827600D02*
X4633900D01*
X4433900Y16649600D02*
X4633900D01*
X16192599Y7405700D02*
Y7605700D01*
X16014600Y7405700D02*
Y7605700D01*
X16192599Y4179900D02*
Y4379900D01*
X16014600Y4179900D02*
Y4379900D01*
X5753200Y4167200D02*
Y4367200D01*
X5575200Y4167200D02*
Y4367200D01*
D40*
X3265300Y15511580D02*
Y16390581D01*
D41*
X10900000Y600000D02*
Y13600000D01*
X14150000Y600000D02*
Y13600000D01*
X12525000Y10954700D02*
Y11099480D01*
Y11810680D02*
Y11945300D01*
X12428480Y11102020D02*
X12618980D01*
X12428480D02*
Y11802020D01*
Y11810680D02*
X12618980D01*
X9178480Y5310680D02*
X9368980D01*
X9178480Y4602020D02*
Y5302020D01*
Y4602020D02*
X9368980D01*
X9275000Y5310680D02*
Y5445300D01*
Y4454700D02*
Y4599480D01*
X12428480Y2060680D02*
X12618980D01*
X12428480Y1352020D02*
Y2052020D01*
Y1352020D02*
X12618980D01*
X12525000Y2060680D02*
Y2195300D01*
Y1204700D02*
Y1349480D01*
X9178480Y2060680D02*
X9368980D01*
X9178480Y1352020D02*
Y2052020D01*
Y1352020D02*
X9368980D01*
X9275000Y2060680D02*
Y2195300D01*
Y1204700D02*
Y1349480D01*
X5928480Y2060680D02*
X6118980D01*
X5928480Y1352020D02*
Y2052020D01*
Y1352020D02*
X6118980D01*
X6025000Y2060680D02*
Y2195300D01*
Y1204700D02*
Y1349480D01*
X4406900Y599999D02*
X17394200Y600000D01*
X15678481Y2060680D02*
X15868980D01*
X15678481Y1352020D02*
Y2052020D01*
Y1352020D02*
X15868980D01*
X15775000Y2060680D02*
Y2195300D01*
Y1204700D02*
Y1349480D01*
X15678481Y5310680D02*
X15868980D01*
X15678481Y4602020D02*
Y5302020D01*
Y4602020D02*
X15868980D01*
X15775000Y5310680D02*
Y5445300D01*
Y4454700D02*
Y4599480D01*
X12428480Y5310680D02*
X12618980D01*
X12428480Y4602020D02*
Y5302020D01*
Y4602020D02*
X12618980D01*
X12525000Y5310680D02*
Y5445300D01*
Y4454700D02*
Y4599480D01*
X5928480Y5310680D02*
X6118980D01*
X5928480Y4602020D02*
Y5302020D01*
Y4602020D02*
X6118980D01*
X6025000Y5310680D02*
Y5445300D01*
Y4454700D02*
Y4599480D01*
X5928480Y8560680D02*
X6118980D01*
X5928480Y7852020D02*
Y8552020D01*
Y7852020D02*
X6118980D01*
X6025000Y8560680D02*
Y8695300D01*
Y7704700D02*
Y7849480D01*
X9178480Y8560680D02*
X9368980D01*
X9178480Y7852020D02*
Y8552020D01*
Y7852020D02*
X9368980D01*
X9275000Y8560680D02*
Y8695300D01*
Y7704700D02*
Y7849480D01*
X12428480Y8560680D02*
X12618980D01*
X12428480Y7852020D02*
Y8552020D01*
Y7852020D02*
X12618980D01*
X12525000Y8560680D02*
Y8695300D01*
Y7704700D02*
Y7849480D01*
X15678481Y8560680D02*
X15868980D01*
X15678481Y7852020D02*
Y8552020D01*
Y7852020D02*
X15868980D01*
X15775000Y8560680D02*
Y8695300D01*
Y7704700D02*
Y7849480D01*
X15678481Y11810680D02*
X15868980D01*
X15678481Y11102020D02*
Y11802020D01*
Y11102020D02*
X15868980D01*
X15775000Y11810680D02*
Y11945300D01*
Y10954700D02*
Y11099480D01*
X9178480Y11810680D02*
X9368980D01*
X9178480Y11102020D02*
Y11802020D01*
Y11102020D02*
X9368980D01*
X9275000Y11810680D02*
Y11945300D01*
Y10954700D02*
Y11099480D01*
X5928480Y11810680D02*
X6118980D01*
X5928480Y11102020D02*
Y11802020D01*
Y11102020D02*
X6118980D01*
X6025000Y11810680D02*
Y11945300D01*
Y10954700D02*
Y11099480D01*
X4400000Y600000D02*
Y13600000D01*
X4406900Y13599998D02*
X17394183Y13600000D01*
X3187700Y14287500D02*
X3887700D01*
X3187700Y14909801D02*
X3898900D01*
Y14287500D02*
Y14909801D01*
X4406900Y3849999D02*
X17389999Y3850000D01*
X4406900Y10349999D02*
X17389999Y10350000D01*
X4406900Y7099999D02*
X17389999Y7100000D01*
X17400000Y600000D02*
Y13600000D01*
X7650000Y600000D02*
Y13600000D01*
D42*
X12618980Y11102020D02*
Y11802020D01*
X9368980Y4602020D02*
Y5302020D01*
X12618980Y1352020D02*
Y2052020D01*
X9368980Y1352020D02*
Y2052020D01*
X6118980Y1352020D02*
Y2052020D01*
X15868980Y1352020D02*
Y2052020D01*
Y4602020D02*
Y5302020D01*
X12618980Y4602020D02*
Y5302020D01*
X6118980Y4602020D02*
Y5302020D01*
Y7852020D02*
Y8552020D01*
X9368980Y7852020D02*
Y8552020D01*
X12618980Y7852020D02*
Y8552020D01*
X15868980Y7852020D02*
Y8552020D01*
Y11102020D02*
Y11802020D01*
X9368980Y11102020D02*
Y11802020D01*
X6118980Y11102020D02*
Y11802020D01*
D43*
X13903928Y16560742D02*
X13878535Y16586134D01*
X13827753D01*
X13802361Y16560742D01*
Y16459175D01*
X13827753Y16433783D01*
X13878535D01*
X13903928Y16459175D01*
X13980103Y16535352D02*
X14030885D01*
X14056277Y16509959D01*
Y16433783D01*
X13980103D01*
X13954710Y16459175D01*
X13980103Y16484567D01*
X14056277D01*
X14107060Y16383000D02*
Y16535352D01*
X14183237D01*
X14208629Y16509959D01*
Y16459175D01*
X14183237Y16433783D01*
X14107060D01*
X14259412D02*
X14335588D01*
X14360979Y16459175D01*
X14335588Y16484567D01*
X14284804D01*
X14259412Y16509959D01*
X14284804Y16535352D01*
X14360979D01*
X14437155Y16560742D02*
Y16535352D01*
X14411763D01*
X14462546D01*
X14437155D01*
Y16459175D01*
X14462546Y16433783D01*
X14564114D02*
X14614897D01*
X14640289Y16459175D01*
Y16509959D01*
X14614897Y16535352D01*
X14564114D01*
X14538722Y16509959D01*
Y16459175D01*
X14564114Y16433783D01*
X14691072D02*
Y16535352D01*
X14767249D01*
X14792641Y16509959D01*
Y16433783D01*
X14919598D02*
X14868816D01*
X14843423Y16459175D01*
Y16509959D01*
X14868816Y16535352D01*
X14919598D01*
X14944991Y16509959D01*
Y16484567D01*
X14843423D01*
X15148125Y16586134D02*
Y16433783D01*
X15224300D01*
X15249692Y16459175D01*
Y16560742D01*
X15224300Y16586134D01*
X15148125D01*
X15376651Y16433783D02*
X15325867D01*
X15300475Y16459175D01*
Y16509959D01*
X15325867Y16535352D01*
X15376651D01*
X15402043Y16509959D01*
Y16484567D01*
X15300475D01*
X15452826Y16433783D02*
X15529001D01*
X15554393Y16459175D01*
X15529001Y16484567D01*
X15478218D01*
X15452826Y16509959D01*
X15478218Y16535352D01*
X15554393D01*
X15605177Y16433783D02*
X15655960D01*
X15630569D01*
Y16535352D01*
X15605177D01*
X15782919Y16383000D02*
X15808311D01*
X15833704Y16408392D01*
Y16535352D01*
X15757529D01*
X15732137Y16509959D01*
Y16459175D01*
X15757529Y16433783D01*
X15833704D01*
X15884486D02*
Y16535352D01*
X15960661D01*
X15986053Y16509959D01*
Y16433783D01*
X16189188D02*
Y16586134D01*
X16265363D01*
X16290755Y16560742D01*
Y16509959D01*
X16265363Y16484567D01*
X16189188D01*
X16341539Y16535352D02*
Y16433783D01*
Y16484567D01*
X16366930Y16509959D01*
X16392322Y16535352D01*
X16417714D01*
X16519281Y16433783D02*
X16570065D01*
X16595457Y16459175D01*
Y16509959D01*
X16570065Y16535352D01*
X16519281D01*
X16493889Y16509959D01*
Y16459175D01*
X16519281Y16433783D01*
X16646240Y16383000D02*
X16671632D01*
X16697025Y16408392D01*
Y16535352D01*
X16874767Y16433783D02*
X16823982D01*
X16798592Y16459175D01*
Y16509959D01*
X16823982Y16535352D01*
X16874767D01*
X16900159Y16509959D01*
Y16484567D01*
X16798592D01*
X17052509Y16535352D02*
X16976334D01*
X16950941Y16509959D01*
Y16459175D01*
X16976334Y16433783D01*
X17052509D01*
X17128683Y16560742D02*
Y16535352D01*
X17103291D01*
X17154076D01*
X17128683D01*
Y16459175D01*
X17154076Y16433783D01*
X4820920Y863567D02*
X4888631D01*
X4854776D01*
Y762000D01*
X4922487D02*
Y863567D01*
X4973271D01*
X4990199Y846639D01*
Y812783D01*
X4973271Y795856D01*
X4922487D01*
X5024054Y745072D02*
X5091766D01*
X5125622Y762000D02*
Y863567D01*
X5176405D01*
X5193333Y846639D01*
Y812783D01*
X5176405Y795856D01*
X5125622D01*
X5159477D02*
X5193333Y762000D01*
X5227189D02*
X5261045D01*
X5244117D01*
Y863567D01*
X5227189Y846639D01*
X5379540Y863567D02*
X5345684Y846639D01*
X5311828Y812783D01*
Y778928D01*
X5328756Y762000D01*
X5362612D01*
X5379540Y778928D01*
Y795856D01*
X5362612Y812783D01*
X5311828D01*
X8178800Y873727D02*
X8246511D01*
X8212656D01*
Y772160D01*
X8280367D02*
Y873727D01*
X8331151D01*
X8348079Y856799D01*
Y822943D01*
X8331151Y806016D01*
X8280367D01*
X8381934Y755232D02*
X8449646D01*
X8483502Y772160D02*
Y873727D01*
X8534285D01*
X8551213Y856799D01*
Y822943D01*
X8534285Y806016D01*
X8483502D01*
X8517357D02*
X8551213Y772160D01*
X8585069D02*
X8618925D01*
X8601997D01*
Y873727D01*
X8585069Y856799D01*
X8737420Y873727D02*
X8669708D01*
Y822943D01*
X8703564Y839871D01*
X8720492D01*
X8737420Y822943D01*
Y789088D01*
X8720492Y772160D01*
X8686636D01*
X8669708Y789088D01*
X13045441Y873727D02*
X13113152D01*
X13079295D01*
Y772160D01*
X13147008D02*
Y873727D01*
X13197791D01*
X13214719Y856799D01*
Y822943D01*
X13197791Y806016D01*
X13147008D01*
X13248573Y755232D02*
X13316286D01*
X13350142Y772160D02*
Y873727D01*
X13400925D01*
X13417853Y856799D01*
Y822943D01*
X13400925Y806016D01*
X13350142D01*
X13383997D02*
X13417853Y772160D01*
X13451709D02*
X13485565D01*
X13468637D01*
Y873727D01*
X13451709Y856799D01*
X13587132Y772160D02*
Y873727D01*
X13536348Y822943D01*
X13604060D01*
X16362680Y881347D02*
X16430391D01*
X16396536D01*
Y779780D01*
X16464247D02*
Y881347D01*
X16515031D01*
X16531960Y864419D01*
Y830563D01*
X16515031Y813636D01*
X16464247D01*
X16565814Y762852D02*
X16633527D01*
X16667381Y779780D02*
Y881347D01*
X16718166D01*
X16735094Y864419D01*
Y830563D01*
X16718166Y813636D01*
X16667381D01*
X16701237D02*
X16735094Y779780D01*
X16768948D02*
X16802805D01*
X16785876D01*
Y881347D01*
X16768948Y864419D01*
X16853587D02*
X16870515Y881347D01*
X16904372D01*
X16921300Y864419D01*
Y847491D01*
X16904372Y830563D01*
X16887444D01*
X16904372D01*
X16921300Y813636D01*
Y796708D01*
X16904372Y779780D01*
X16870515D01*
X16853587Y796708D01*
X16189960Y4076667D02*
X16257671D01*
X16223816D01*
Y3975100D01*
X16291527D02*
Y4076667D01*
X16342311D01*
X16359239Y4059739D01*
Y4025883D01*
X16342311Y4008956D01*
X16291527D01*
X16393094Y3958172D02*
X16460806D01*
X16494662Y3975100D02*
Y4076667D01*
X16545445D01*
X16562373Y4059739D01*
Y4025883D01*
X16545445Y4008956D01*
X16494662D01*
X16528517D02*
X16562373Y3975100D01*
X16596230D02*
X16630086D01*
X16613158D01*
Y4076667D01*
X16596230Y4059739D01*
X16748579Y3975100D02*
X16680869D01*
X16748579Y4042811D01*
Y4059739D01*
X16731651Y4076667D01*
X16697797D01*
X16680869Y4059739D01*
X13088620Y4089367D02*
X13156331D01*
X13122476D01*
Y3987800D01*
X13190187D02*
Y4089367D01*
X13240971D01*
X13257899Y4072439D01*
Y4038583D01*
X13240971Y4021656D01*
X13190187D01*
X13291754Y3970872D02*
X13359467D01*
X13393323Y3987800D02*
Y4089367D01*
X13444106D01*
X13461034Y4072439D01*
Y4038583D01*
X13444106Y4021656D01*
X13393323D01*
X13427177D02*
X13461034Y3987800D01*
X13494888D02*
X13528745D01*
X13511816D01*
Y4089367D01*
X13494888Y4072439D01*
X13579527Y3987800D02*
X13613383D01*
X13596455D01*
Y4089367D01*
X13579527Y4072439D01*
X8204200Y4099527D02*
X8271911D01*
X8238056D01*
Y3997960D01*
X8305767D02*
Y4099527D01*
X8356551D01*
X8373479Y4082599D01*
Y4048743D01*
X8356551Y4031816D01*
X8305767D01*
X8407334Y3981032D02*
X8475046D01*
X8508902Y3997960D02*
Y4099527D01*
X8559685D01*
X8576613Y4082599D01*
Y4048743D01*
X8559685Y4031816D01*
X8508902D01*
X8542757D02*
X8576613Y3997960D01*
X8610469D02*
X8644325D01*
X8627397D01*
Y4099527D01*
X8610469Y4082599D01*
X8695108D02*
X8712036Y4099527D01*
X8745892D01*
X8762820Y4082599D01*
Y4014888D01*
X8745892Y3997960D01*
X8712036D01*
X8695108Y4014888D01*
Y4082599D01*
X5003800Y4127467D02*
X5071511D01*
X5037656D01*
Y4025900D01*
X5105367D02*
Y4127467D01*
X5156151D01*
X5173079Y4110539D01*
Y4076683D01*
X5156151Y4059756D01*
X5105367D01*
X5206934Y4008972D02*
X5274646D01*
X5308502Y4025900D02*
Y4127467D01*
X5359285D01*
X5376213Y4110539D01*
Y4076683D01*
X5359285Y4059756D01*
X5308502D01*
X5342357D02*
X5376213Y4025900D01*
X5410069Y4042828D02*
X5426997Y4025900D01*
X5460852D01*
X5477780Y4042828D01*
Y4110539D01*
X5460852Y4127467D01*
X5426997D01*
X5410069Y4110539D01*
Y4093611D01*
X5426997Y4076683D01*
X5477780D01*
X5011420Y7386287D02*
X5079131D01*
X5045276D01*
Y7284720D01*
X5112987D02*
Y7386287D01*
X5163771D01*
X5180699Y7369359D01*
Y7335503D01*
X5163771Y7318576D01*
X5112987D01*
X5214554Y7267792D02*
X5282266D01*
X5316122Y7284720D02*
Y7386287D01*
X5366905D01*
X5383833Y7369359D01*
Y7335503D01*
X5366905Y7318576D01*
X5316122D01*
X5349977D02*
X5383833Y7284720D01*
X5417689Y7369359D02*
X5434617Y7386287D01*
X5468472D01*
X5485400Y7369359D01*
Y7352431D01*
X5468472Y7335503D01*
X5485400Y7318576D01*
Y7301648D01*
X5468472Y7284720D01*
X5434617D01*
X5417689Y7301648D01*
Y7318576D01*
X5434617Y7335503D01*
X5417689Y7352431D01*
Y7369359D01*
X5434617Y7335503D02*
X5468472D01*
X8300720Y7393907D02*
X8368431D01*
X8334576D01*
Y7292340D01*
X8402287D02*
Y7393907D01*
X8453071D01*
X8469999Y7376979D01*
Y7343123D01*
X8453071Y7326196D01*
X8402287D01*
X8503854Y7275412D02*
X8571566D01*
X8605422Y7292340D02*
Y7393907D01*
X8656205D01*
X8673133Y7376979D01*
Y7343123D01*
X8656205Y7326196D01*
X8605422D01*
X8639277D02*
X8673133Y7292340D01*
X8706989Y7393907D02*
X8774700D01*
Y7376979D01*
X8706989Y7309268D01*
Y7292340D01*
X13050520Y7380355D02*
X13118231D01*
X13084377D01*
Y7278788D01*
X13152087D02*
Y7380355D01*
X13202872D01*
X13219798Y7363427D01*
Y7329571D01*
X13202872Y7312643D01*
X13152087D01*
X13253654Y7261860D02*
X13321365D01*
X13355222Y7278788D02*
Y7380355D01*
X13406004D01*
X13422932Y7363427D01*
Y7329571D01*
X13406004Y7312643D01*
X13355222D01*
X13389078D02*
X13422932Y7278788D01*
X13524500Y7380355D02*
X13490645Y7363427D01*
X13456789Y7329571D01*
Y7295716D01*
X13473717Y7278788D01*
X13507571D01*
X13524500Y7295716D01*
Y7312643D01*
X13507571Y7329571D01*
X13456789D01*
X16324580Y7321935D02*
X16392291D01*
X16358437D01*
Y7220368D01*
X16426147D02*
Y7321935D01*
X16476932D01*
X16493858Y7305007D01*
Y7271151D01*
X16476932Y7254223D01*
X16426147D01*
X16527715Y7203440D02*
X16595425D01*
X16629282Y7220368D02*
Y7321935D01*
X16680064D01*
X16696992Y7305007D01*
Y7271151D01*
X16680064Y7254223D01*
X16629282D01*
X16663136D02*
X16696992Y7220368D01*
X16798560Y7321935D02*
X16730849D01*
Y7271151D01*
X16764705Y7288079D01*
X16781631D01*
X16798560Y7271151D01*
Y7237296D01*
X16781631Y7220368D01*
X16747777D01*
X16730849Y7237296D01*
X16276320Y10621395D02*
X16344031D01*
X16310176D01*
Y10519828D01*
X16377887D02*
Y10621395D01*
X16428671D01*
X16445599Y10604467D01*
Y10570611D01*
X16428671Y10553683D01*
X16377887D01*
X16479454Y10502900D02*
X16547166D01*
X16581023Y10519828D02*
Y10621395D01*
X16631805D01*
X16648734Y10604467D01*
Y10570611D01*
X16631805Y10553683D01*
X16581023D01*
X16614877D02*
X16648734Y10519828D01*
X16733372D02*
Y10621395D01*
X16682590Y10570611D01*
X16750301D01*
X13070840Y10590915D02*
X13138551D01*
X13104697D01*
Y10489348D01*
X13172408D02*
Y10590915D01*
X13223190D01*
X13240118Y10573987D01*
Y10540131D01*
X13223190Y10523203D01*
X13172408D01*
X13273975Y10472420D02*
X13341685D01*
X13375542Y10489348D02*
Y10590915D01*
X13426324D01*
X13443253Y10573987D01*
Y10540131D01*
X13426324Y10523203D01*
X13375542D01*
X13409396D02*
X13443253Y10489348D01*
X13477109Y10573987D02*
X13494037Y10590915D01*
X13527892D01*
X13544820Y10573987D01*
Y10557059D01*
X13527892Y10540131D01*
X13510965D01*
X13527892D01*
X13544820Y10523203D01*
Y10506276D01*
X13527892Y10489348D01*
X13494037D01*
X13477109Y10506276D01*
X8338820Y10608695D02*
X8406531D01*
X8372676D01*
Y10507128D01*
X8440387D02*
Y10608695D01*
X8491171D01*
X8508099Y10591767D01*
Y10557911D01*
X8491171Y10540983D01*
X8440387D01*
X8541954Y10490200D02*
X8609666D01*
X8643522Y10507128D02*
Y10608695D01*
X8694305D01*
X8711233Y10591767D01*
Y10557911D01*
X8694305Y10540983D01*
X8643522D01*
X8677377D02*
X8711233Y10507128D01*
X8812800D02*
X8745089D01*
X8812800Y10574839D01*
Y10591767D01*
X8795872Y10608695D01*
X8762017D01*
X8745089Y10591767D01*
X5024120Y10629015D02*
X5091831D01*
X5057976D01*
Y10527448D01*
X5125687D02*
Y10629015D01*
X5176471D01*
X5193399Y10612087D01*
Y10578231D01*
X5176471Y10561303D01*
X5125687D01*
X5227254Y10510520D02*
X5294966D01*
X5328822Y10527448D02*
Y10629015D01*
X5379605D01*
X5396533Y10612087D01*
Y10578231D01*
X5379605Y10561303D01*
X5328822D01*
X5362677D02*
X5396533Y10527448D01*
X5430389D02*
X5464245D01*
X5447317D01*
Y10629015D01*
X5430389Y10612087D01*
X3246120Y16751266D02*
Y16666628D01*
X3263048Y16649699D01*
X3296903D01*
X3313831Y16666628D01*
Y16751266D01*
X3415399Y16734338D02*
X3398471Y16751266D01*
X3364615D01*
X3347687Y16734338D01*
Y16717410D01*
X3364615Y16700484D01*
X3398471D01*
X3415399Y16683556D01*
Y16666628D01*
X3398471Y16649699D01*
X3364615D01*
X3347687Y16666628D01*
X3449254Y16751266D02*
Y16649699D01*
X3500038D01*
X3516966Y16666628D01*
Y16683556D01*
X3500038Y16700484D01*
X3449254D01*
X3500038D01*
X3516966Y16717410D01*
Y16734338D01*
X3500038Y16751266D01*
X3449254D01*
X3550822Y16700484D02*
X3618533D01*
X3720100Y16734338D02*
X3703172Y16751266D01*
X3669317D01*
X3652389Y16734338D01*
Y16666628D01*
X3669317Y16649699D01*
X3703172D01*
X3720100Y16666628D01*
X5532120Y17281274D02*
X5599831D01*
X5565976D01*
Y17179707D01*
X5633687D02*
Y17281274D01*
X5684471D01*
X5701399Y17264346D01*
Y17230492D01*
X5684471Y17213564D01*
X5633687D01*
X5735254Y17162781D02*
X5802966D01*
X5904533Y17281274D02*
X5836822D01*
Y17230492D01*
X5870677Y17247420D01*
X5887605D01*
X5904533Y17230492D01*
Y17196635D01*
X5887605Y17179707D01*
X5853750D01*
X5836822Y17196635D01*
X5938389Y17281274D02*
Y17213564D01*
X5972245Y17179707D01*
X6006100Y17213564D01*
Y17281274D01*
X6235700Y17291435D02*
X6303411D01*
X6269556D01*
Y17189868D01*
X6337267D02*
Y17291435D01*
X6388051D01*
X6404979Y17274507D01*
Y17240651D01*
X6388051Y17223723D01*
X6337267D01*
X6438834Y17172940D02*
X6506546D01*
X6540402Y17274507D02*
X6557330Y17291435D01*
X6591185D01*
X6608113Y17274507D01*
Y17257579D01*
X6591185Y17240651D01*
X6574257D01*
X6591185D01*
X6608113Y17223723D01*
Y17206796D01*
X6591185Y17189868D01*
X6557330D01*
X6540402Y17206796D01*
X6641969Y17291435D02*
Y17223723D01*
X6675825Y17189868D01*
X6709680Y17223723D01*
Y17291435D01*
X6743536Y17274507D02*
X6760464Y17291435D01*
X6794320D01*
X6811247Y17274507D01*
Y17257579D01*
X6794320Y17240651D01*
X6777392D01*
X6794320D01*
X6811247Y17223723D01*
Y17206796D01*
X6794320Y17189868D01*
X6760464D01*
X6743536Y17206796D01*
X10508013Y10954151D02*
X10491085Y10937223D01*
Y10903368D01*
X10508013Y10886440D01*
X10524941D01*
X10541868Y10903368D01*
Y10937223D01*
X10558796Y10954151D01*
X10575724D01*
X10592652Y10937223D01*
Y10903368D01*
X10575724Y10886440D01*
X10592652Y10988007D02*
X10491085D01*
Y11038790D01*
X10508013Y11055718D01*
X10541868D01*
X10558796Y11038790D01*
Y10988007D01*
Y11021863D02*
X10592652Y11055718D01*
X10609580Y11089574D02*
Y11157286D01*
X10491085Y11241925D02*
Y11208069D01*
X10508013Y11191141D01*
X10575724D01*
X10592652Y11208069D01*
Y11241925D01*
X10575724Y11258853D01*
X10508013D01*
X10491085Y11241925D01*
Y11292709D02*
X10575724D01*
X10592652Y11309637D01*
Y11343492D01*
X10575724Y11360420D01*
X10491085D01*
Y11394276D02*
Y11461987D01*
Y11428132D01*
X10592652D01*
X5283200Y13093668D02*
Y12992101D01*
X5333983D01*
X5350911Y13009029D01*
Y13076740D01*
X5333983Y13093668D01*
X5283200D01*
X5384767D02*
X5418623D01*
X5401695D01*
Y12992101D01*
X5384767D01*
X5418623D01*
X5469407D02*
Y13093668D01*
X5537118Y12992101D01*
Y13093668D01*
X6997700Y16823239D02*
X7014628Y16840167D01*
X7048483D01*
X7065411Y16823239D01*
Y16806311D01*
X7048483Y16789383D01*
X7031556D01*
X7048483D01*
X7065411Y16772456D01*
Y16755528D01*
X7048483Y16738600D01*
X7014628D01*
X6997700Y16755528D01*
X7099267Y16840167D02*
Y16772456D01*
X7133123Y16738600D01*
X7166979Y16772456D01*
Y16840167D01*
X7200834Y16823239D02*
X7217762Y16840167D01*
X7251618D01*
X7268546Y16823239D01*
Y16806311D01*
X7251618Y16789383D01*
X7234690D01*
X7251618D01*
X7268546Y16772456D01*
Y16755528D01*
X7251618Y16738600D01*
X7217762D01*
X7200834Y16755528D01*
X5173111Y16814767D02*
X5105400D01*
Y16763983D01*
X5139256Y16780911D01*
X5156183D01*
X5173111Y16763983D01*
Y16730128D01*
X5156183Y16713200D01*
X5122328D01*
X5105400Y16730128D01*
X5206967Y16814767D02*
Y16747057D01*
X5240823Y16713200D01*
X5274679Y16747057D01*
Y16814767D01*
X13906474Y15659052D02*
X13855692D01*
X13830299Y15633659D01*
Y15532092D01*
X13855692Y15506700D01*
X13906474D01*
X13931866Y15532092D01*
Y15633659D01*
X13906474Y15659052D01*
X14084218Y15608267D02*
X14008043D01*
X13982651Y15582875D01*
Y15532092D01*
X14008043Y15506700D01*
X14084218D01*
X14160393Y15633659D02*
Y15608267D01*
X14135001D01*
X14185785D01*
X14160393D01*
Y15532092D01*
X14185785Y15506700D01*
X14287352D02*
X14338136D01*
X14363528Y15532092D01*
Y15582875D01*
X14338136Y15608267D01*
X14287352D01*
X14261960Y15582875D01*
Y15532092D01*
X14287352Y15506700D01*
X14414311Y15659052D02*
Y15506700D01*
X14490486D01*
X14515878Y15532092D01*
Y15557483D01*
Y15582875D01*
X14490486Y15608267D01*
X14414311D01*
X14642838Y15506700D02*
X14592055D01*
X14566663Y15532092D01*
Y15582875D01*
X14592055Y15608267D01*
X14642838D01*
X14668230Y15582875D01*
Y15557483D01*
X14566663D01*
X14719012Y15608267D02*
Y15506700D01*
Y15557483D01*
X14744405Y15582875D01*
X14769797Y15608267D01*
X14795187D01*
X15125281Y15506700D02*
X15023714D01*
X15125281Y15608267D01*
Y15633659D01*
X15099889Y15659052D01*
X15049106D01*
X15023714Y15633659D01*
X15176065D02*
X15201457Y15659052D01*
X15252240D01*
X15277632Y15633659D01*
Y15532092D01*
X15252240Y15506700D01*
X15201457D01*
X15176065Y15532092D01*
Y15633659D01*
X15429984Y15506700D02*
X15328415D01*
X15429984Y15608267D01*
Y15633659D01*
X15404591Y15659052D01*
X15353807D01*
X15328415Y15633659D01*
X15556941Y15506700D02*
Y15659052D01*
X15480766Y15582875D01*
X15582333D01*
X13830299Y15951199D02*
Y16103551D01*
X13881084Y16052766D01*
X13931866Y16103551D01*
Y15951199D01*
X13982651D02*
X14033434D01*
X14008043D01*
Y16052766D01*
X13982651D01*
X14109610Y15951199D02*
Y16052766D01*
X14185785D01*
X14211177Y16027374D01*
Y15951199D01*
X14261960D02*
X14312744D01*
X14287352D01*
Y16052766D01*
X14261960D01*
X14642838Y16078159D02*
X14617445Y16103551D01*
X14566663D01*
X14541270Y16078159D01*
Y15976591D01*
X14566663Y15951199D01*
X14617445D01*
X14642838Y15976591D01*
X14693620Y16103551D02*
Y15951199D01*
Y16027374D01*
X14719012Y16052766D01*
X14769797D01*
X14795187Y16027374D01*
Y15951199D01*
X14922147D02*
X14871362D01*
X14845972Y15976591D01*
Y16027374D01*
X14871362Y16052766D01*
X14922147D01*
X14947539Y16027374D01*
Y16001984D01*
X14845972D01*
X14998322Y15951199D02*
X15074496D01*
X15099889Y15976591D01*
X15074496Y16001984D01*
X15023714D01*
X14998322Y16027374D01*
X15023714Y16052766D01*
X15099889D01*
X15150673Y15951199D02*
X15226848D01*
X15252240Y15976591D01*
X15226848Y16001984D01*
X15176065D01*
X15150673Y16027374D01*
X15176065Y16052766D01*
X15252240D01*
X15455374Y16103551D02*
Y15951199D01*
X15531551D01*
X15556941Y15976591D01*
Y16001984D01*
X15531551Y16027374D01*
X15455374D01*
X15531551D01*
X15556941Y16052766D01*
Y16078159D01*
X15531551Y16103551D01*
X15455374D01*
X15633118Y15951199D02*
X15683900D01*
X15709293Y15976591D01*
Y16027374D01*
X15683900Y16052766D01*
X15633118D01*
X15607726Y16027374D01*
Y15976591D01*
X15633118Y15951199D01*
X15785468Y16052766D02*
X15836250D01*
X15861642Y16027374D01*
Y15951199D01*
X15785468D01*
X15760075Y15976591D01*
X15785468Y16001984D01*
X15861642D01*
X15912427Y16052766D02*
Y15951199D01*
Y16001984D01*
X15937817Y16027374D01*
X15963210Y16052766D01*
X15988602D01*
X16166344Y16103551D02*
Y15951199D01*
X16090169D01*
X16064777Y15976591D01*
Y16027374D01*
X16090169Y16052766D01*
X16166344D01*
X3547511Y14105440D02*
X3530583Y14122366D01*
X3496728D01*
X3479800Y14105440D01*
Y14037727D01*
X3496728Y14020799D01*
X3530583D01*
X3547511Y14037727D01*
Y14071584D01*
X3513656D01*
X3581367Y14020799D02*
Y14122366D01*
X3649079Y14020799D01*
Y14122366D01*
X3682934D02*
Y14020799D01*
X3733718D01*
X3750646Y14037727D01*
Y14105440D01*
X3733718Y14122366D01*
X3682934D01*
X3200400Y15007156D02*
Y15108723D01*
X3251183D01*
X3268111Y15091795D01*
Y15057939D01*
X3251183Y15041011D01*
X3200400D01*
X3301967Y15108723D02*
Y15007156D01*
X3335823Y15041011D01*
X3369679Y15007156D01*
Y15108723D01*
X3403534Y15007156D02*
Y15108723D01*
X3454318D01*
X3471246Y15091795D01*
Y15057939D01*
X3454318Y15041011D01*
X3403534D01*
X3437390D02*
X3471246Y15007156D01*
X3674380Y15091795D02*
X3657452Y15108723D01*
X3623597D01*
X3606669Y15091795D01*
Y15074867D01*
X3623597Y15057939D01*
X3657452D01*
X3674380Y15041011D01*
Y15024083D01*
X3657452Y15007156D01*
X3623597D01*
X3606669Y15024083D01*
X3708236Y15074867D02*
Y15024083D01*
X3725164Y15007156D01*
X3775947D01*
Y15074867D01*
X3809803Y14973300D02*
Y15074867D01*
X3860587D01*
X3877515Y15057939D01*
Y15024083D01*
X3860587Y15007156D01*
X3809803D01*
X3911371D02*
Y15024083D01*
X3928298D01*
Y15007156D01*
X3911371D01*
X4461961Y14127464D02*
Y14042824D01*
X4478889Y14025897D01*
X4512744D01*
X4529672Y14042824D01*
Y14127464D01*
X4563528Y14110536D02*
X4580456Y14127464D01*
X4614312D01*
X4631239Y14110536D01*
Y14093608D01*
X4614312Y14076680D01*
X4597384D01*
X4614312D01*
X4631239Y14059752D01*
Y14042824D01*
X4614312Y14025897D01*
X4580456D01*
X4563528Y14042824D01*
X9935661Y10718784D02*
Y10634144D01*
X9952589Y10617217D01*
X9986444D01*
X10003372Y10634144D01*
Y10718784D01*
X10104939D02*
X10037228D01*
Y10668000D01*
X10071084Y10684928D01*
X10088012D01*
X10104939Y10668000D01*
Y10634144D01*
X10088012Y10617217D01*
X10054156D01*
X10037228Y10634144D01*
X9890760Y4284931D02*
Y4157972D01*
X9916152Y4132580D01*
X9966935D01*
X9992327Y4157972D01*
Y4284931D01*
X10119286Y4132580D02*
Y4284931D01*
X10043111Y4208755D01*
X10144678D01*
X12399461Y17094183D02*
Y17009544D01*
X12416389Y16992616D01*
X12450244D01*
X12467172Y17009544D01*
Y17094183D01*
X12568739Y16992616D02*
X12501028D01*
X12568739Y17060329D01*
Y17077255D01*
X12551812Y17094183D01*
X12517956D01*
X12501028Y17077255D01*
X6129889Y16840184D02*
Y16755544D01*
X6146817Y16738617D01*
X6180672D01*
X6197600Y16755544D01*
Y16840184D01*
X6231456Y16738617D02*
X6265312D01*
X6248384D01*
Y16840184D01*
X6231456Y16823256D01*
X16044370Y1773756D02*
X16027441Y1790684D01*
X15993585D01*
X15976657Y1773756D01*
Y1756828D01*
X15993585Y1739900D01*
X16027441D01*
X16044370Y1722972D01*
Y1706044D01*
X16027441Y1689117D01*
X15993585D01*
X15976657Y1706044D01*
X16078226Y1790684D02*
Y1689117D01*
X16112080Y1722972D01*
X16145937Y1689117D01*
Y1790684D01*
X16179791Y1689117D02*
X16213647D01*
X16196719D01*
Y1790684D01*
X16179791Y1773756D01*
X16332143Y1790684D02*
X16298286Y1773756D01*
X16264432Y1739900D01*
Y1706044D01*
X16281358Y1689117D01*
X16315215D01*
X16332143Y1706044D01*
Y1722972D01*
X16315215Y1739900D01*
X16264432D01*
X12793169Y1748356D02*
X12776241Y1765284D01*
X12742385D01*
X12725457Y1748356D01*
Y1731428D01*
X12742385Y1714500D01*
X12776241D01*
X12793169Y1697572D01*
Y1680644D01*
X12776241Y1663717D01*
X12742385D01*
X12725457Y1680644D01*
X12827025Y1765284D02*
Y1663717D01*
X12860880Y1697572D01*
X12894736Y1663717D01*
Y1765284D01*
X12928592Y1663717D02*
X12962448D01*
X12945520D01*
Y1765284D01*
X12928592Y1748356D01*
X13080943Y1765284D02*
X13013231D01*
Y1714500D01*
X13047087Y1731428D01*
X13064015D01*
X13080943Y1714500D01*
Y1680644D01*
X13064015Y1663717D01*
X13030159D01*
X13013231Y1680644D01*
X9580069Y1735656D02*
X9563141Y1752584D01*
X9529285D01*
X9512357Y1735656D01*
Y1718728D01*
X9529285Y1701800D01*
X9563141D01*
X9580069Y1684872D01*
Y1667944D01*
X9563141Y1651017D01*
X9529285D01*
X9512357Y1667944D01*
X9613925Y1752584D02*
Y1651017D01*
X9647780Y1684872D01*
X9681636Y1651017D01*
Y1752584D01*
X9715492Y1651017D02*
X9749348D01*
X9732420D01*
Y1752584D01*
X9715492Y1735656D01*
X9850915Y1651017D02*
Y1752584D01*
X9800131Y1701800D01*
X9867843D01*
X6303469Y1773756D02*
X6286541Y1790684D01*
X6252685D01*
X6235757Y1773756D01*
Y1756828D01*
X6252685Y1739900D01*
X6286541D01*
X6303469Y1722972D01*
Y1706044D01*
X6286541Y1689117D01*
X6252685D01*
X6235757Y1706044D01*
X6337325Y1790684D02*
Y1689117D01*
X6371180Y1722972D01*
X6405036Y1689117D01*
Y1790684D01*
X6438892Y1689117D02*
X6472748D01*
X6455820D01*
Y1790684D01*
X6438892Y1773756D01*
X6523531D02*
X6540459Y1790684D01*
X6574315D01*
X6591243Y1773756D01*
Y1756828D01*
X6574315Y1739900D01*
X6557387D01*
X6574315D01*
X6591243Y1722972D01*
Y1706044D01*
X6574315Y1689117D01*
X6540459D01*
X6523531Y1706044D01*
X16057069Y5050356D02*
X16040141Y5067284D01*
X16006285D01*
X15989357Y5050356D01*
Y5033428D01*
X16006285Y5016500D01*
X16040141D01*
X16057069Y4999572D01*
Y4982644D01*
X16040141Y4965717D01*
X16006285D01*
X15989357Y4982644D01*
X16090926Y5067284D02*
Y4965717D01*
X16124780Y4999572D01*
X16158636Y4965717D01*
Y5067284D01*
X16192493Y4965717D02*
X16226347D01*
X16209419D01*
Y5067284D01*
X16192493Y5050356D01*
X16344843Y4965717D02*
X16277132D01*
X16344843Y5033428D01*
Y5050356D01*
X16327914Y5067284D01*
X16294060D01*
X16277132Y5050356D01*
X12784697Y5024956D02*
X12767769Y5041884D01*
X12733913D01*
X12716985Y5024956D01*
Y5008028D01*
X12733913Y4991100D01*
X12767769D01*
X12784697Y4974172D01*
Y4957244D01*
X12767769Y4940317D01*
X12733913D01*
X12716985Y4957244D01*
X12818552Y5041884D02*
Y4940317D01*
X12852408Y4974172D01*
X12886264Y4940317D01*
Y5041884D01*
X12920120Y4940317D02*
X12953975D01*
X12937048D01*
Y5041884D01*
X12920120Y5024956D01*
X13004759Y4940317D02*
X13038615D01*
X13021687D01*
Y5041884D01*
X13004759Y5024956D01*
X9643569Y5050356D02*
X9626641Y5067284D01*
X9592785D01*
X9575857Y5050356D01*
Y5033428D01*
X9592785Y5016500D01*
X9626641D01*
X9643569Y4999572D01*
Y4982644D01*
X9626641Y4965717D01*
X9592785D01*
X9575857Y4982644D01*
X9677425Y5067284D02*
Y4965717D01*
X9711280Y4999572D01*
X9745136Y4965717D01*
Y5067284D01*
X9778992Y4965717D02*
X9812848D01*
X9795920D01*
Y5067284D01*
X9778992Y5050356D01*
X9863631D02*
X9880559Y5067284D01*
X9914415D01*
X9931343Y5050356D01*
Y4982644D01*
X9914415Y4965717D01*
X9880559D01*
X9863631Y4982644D01*
Y5050356D01*
X6358488D02*
X6341561Y5067284D01*
X6307705D01*
X6290777Y5050356D01*
Y5033428D01*
X6307705Y5016500D01*
X6341561D01*
X6358488Y4999572D01*
Y4982644D01*
X6341561Y4965717D01*
X6307705D01*
X6290777Y4982644D01*
X6392344Y5067284D02*
Y4965717D01*
X6426200Y4999572D01*
X6460056Y4965717D01*
Y5067284D01*
X6493912Y4982644D02*
X6510839Y4965717D01*
X6544695D01*
X6561623Y4982644D01*
Y5050356D01*
X6544695Y5067284D01*
X6510839D01*
X6493912Y5050356D01*
Y5033428D01*
X6510839Y5016500D01*
X6561623D01*
X16061288Y8314256D02*
X16044360Y8331184D01*
X16010506D01*
X15993578Y8314256D01*
Y8297328D01*
X16010506Y8280400D01*
X16044360D01*
X16061288Y8263472D01*
Y8246544D01*
X16044360Y8229617D01*
X16010506D01*
X15993578Y8246544D01*
X16095145Y8331184D02*
Y8229617D01*
X16128999Y8263472D01*
X16162856Y8229617D01*
Y8331184D01*
X16196712Y8314256D02*
X16213638Y8331184D01*
X16247495D01*
X16264423Y8314256D01*
Y8297328D01*
X16247495Y8280400D01*
X16264423Y8263472D01*
Y8246544D01*
X16247495Y8229617D01*
X16213638D01*
X16196712Y8246544D01*
Y8263472D01*
X16213638Y8280400D01*
X16196712Y8297328D01*
Y8314256D01*
X16213638Y8280400D02*
X16247495D01*
X12797388Y8326956D02*
X12780461Y8343884D01*
X12746605D01*
X12729677Y8326956D01*
Y8310028D01*
X12746605Y8293100D01*
X12780461D01*
X12797388Y8276172D01*
Y8259244D01*
X12780461Y8242317D01*
X12746605D01*
X12729677Y8259244D01*
X12831244Y8343884D02*
Y8242317D01*
X12865100Y8276172D01*
X12898956Y8242317D01*
Y8343884D01*
X12932812D02*
X13000523D01*
Y8326956D01*
X12932812Y8259244D01*
Y8242317D01*
X9596988Y8288856D02*
X9580061Y8305784D01*
X9546205D01*
X9529277Y8288856D01*
Y8271928D01*
X9546205Y8255000D01*
X9580061D01*
X9596988Y8238072D01*
Y8221144D01*
X9580061Y8204217D01*
X9546205D01*
X9529277Y8221144D01*
X9630844Y8305784D02*
Y8204217D01*
X9664700Y8238072D01*
X9698556Y8204217D01*
Y8305784D01*
X9800123D02*
X9766267Y8288856D01*
X9732412Y8255000D01*
Y8221144D01*
X9749339Y8204217D01*
X9783195D01*
X9800123Y8221144D01*
Y8238072D01*
X9783195Y8255000D01*
X9732412D01*
X6358488Y8250756D02*
X6341561Y8267684D01*
X6307705D01*
X6290777Y8250756D01*
Y8233828D01*
X6307705Y8216900D01*
X6341561D01*
X6358488Y8199972D01*
Y8183044D01*
X6341561Y8166117D01*
X6307705D01*
X6290777Y8183044D01*
X6392344Y8267684D02*
Y8166117D01*
X6426200Y8199972D01*
X6460056Y8166117D01*
Y8267684D01*
X6561623D02*
X6493912D01*
Y8216900D01*
X6527767Y8233828D01*
X6544695D01*
X6561623Y8216900D01*
Y8183044D01*
X6544695Y8166117D01*
X6510839D01*
X6493912Y8183044D01*
X16099388Y11552756D02*
X16082462Y11569684D01*
X16048605D01*
X16031677Y11552756D01*
Y11535828D01*
X16048605Y11518900D01*
X16082462D01*
X16099388Y11501972D01*
Y11485044D01*
X16082462Y11468117D01*
X16048605D01*
X16031677Y11485044D01*
X16133244Y11569684D02*
Y11468117D01*
X16167101Y11501972D01*
X16200957Y11468117D01*
Y11569684D01*
X16285596Y11468117D02*
Y11569684D01*
X16234811Y11518900D01*
X16302522D01*
X12810088Y11501956D02*
X12793161Y11518884D01*
X12759305D01*
X12742377Y11501956D01*
Y11485028D01*
X12759305Y11468100D01*
X12793161D01*
X12810088Y11451172D01*
Y11434244D01*
X12793161Y11417317D01*
X12759305D01*
X12742377Y11434244D01*
X12843944Y11518884D02*
Y11417317D01*
X12877800Y11451172D01*
X12911656Y11417317D01*
Y11518884D01*
X12945512Y11501956D02*
X12962439Y11518884D01*
X12996295D01*
X13013223Y11501956D01*
Y11485028D01*
X12996295Y11468100D01*
X12979367D01*
X12996295D01*
X13013223Y11451172D01*
Y11434244D01*
X12996295Y11417317D01*
X12962439D01*
X12945512Y11434244D01*
X9571588Y11501956D02*
X9554661Y11518884D01*
X9520805D01*
X9503877Y11501956D01*
Y11485028D01*
X9520805Y11468100D01*
X9554661D01*
X9571588Y11451172D01*
Y11434244D01*
X9554661Y11417317D01*
X9520805D01*
X9503877Y11434244D01*
X9605444Y11518884D02*
Y11417317D01*
X9639300Y11451172D01*
X9673156Y11417317D01*
Y11518884D01*
X9774723Y11417317D02*
X9707012D01*
X9774723Y11485028D01*
Y11501956D01*
X9757795Y11518884D01*
X9723939D01*
X9707012Y11501956D01*
X6324616Y11489256D02*
X6307688Y11506184D01*
X6273833D01*
X6256905Y11489256D01*
Y11472328D01*
X6273833Y11455400D01*
X6307688D01*
X6324616Y11438472D01*
Y11421544D01*
X6307688Y11404617D01*
X6273833D01*
X6256905Y11421544D01*
X6358472Y11506184D02*
Y11404617D01*
X6392328Y11438472D01*
X6426183Y11404617D01*
Y11506184D01*
X6460039Y11404617D02*
X6493895D01*
X6476967D01*
Y11506184D01*
X6460039Y11489256D01*
X15980878Y1231917D02*
Y1333484D01*
X16031660D01*
X16048589Y1316556D01*
Y1282700D01*
X16031660Y1265772D01*
X15980878D01*
X16014732D02*
X16048589Y1231917D01*
X16150156D02*
X16082443D01*
X16150156Y1299628D01*
Y1316556D01*
X16133228Y1333484D01*
X16099371D01*
X16082443Y1316556D01*
X16184012D02*
X16200938Y1333484D01*
X16234795D01*
X16251723Y1316556D01*
Y1248844D01*
X16234795Y1231917D01*
X16200938D01*
X16184012Y1248844D01*
Y1316556D01*
X12738141Y1244617D02*
Y1346184D01*
X12788925D01*
X12805852Y1329256D01*
Y1295400D01*
X12788925Y1278472D01*
X12738141D01*
X12771997D02*
X12805852Y1244617D01*
X12839708D02*
X12873564D01*
X12856636D01*
Y1346184D01*
X12839708Y1329256D01*
X12924348Y1261544D02*
X12941277Y1244617D01*
X12975131D01*
X12992059Y1261544D01*
Y1329256D01*
X12975131Y1346184D01*
X12941277D01*
X12924348Y1329256D01*
Y1312328D01*
X12941277Y1295400D01*
X12992059D01*
X8864641Y1231917D02*
Y1333484D01*
X8915425D01*
X8932352Y1316556D01*
Y1282700D01*
X8915425Y1265772D01*
X8864641D01*
X8898497D02*
X8932352Y1231917D01*
X8966208D02*
X9000064D01*
X8983136D01*
Y1333484D01*
X8966208Y1316556D01*
X9050848D02*
X9067776Y1333484D01*
X9101631D01*
X9118559Y1316556D01*
Y1299628D01*
X9101631Y1282700D01*
X9118559Y1265772D01*
Y1248844D01*
X9101631Y1231917D01*
X9067776D01*
X9050848Y1248844D01*
Y1265772D01*
X9067776Y1282700D01*
X9050848Y1299628D01*
Y1316556D01*
X9067776Y1282700D02*
X9101631D01*
X5537241Y1231917D02*
Y1333484D01*
X5588025D01*
X5604952Y1316556D01*
Y1282700D01*
X5588025Y1265772D01*
X5537241D01*
X5571097D02*
X5604952Y1231917D01*
X5638808D02*
X5672664D01*
X5655736D01*
Y1333484D01*
X5638808Y1316556D01*
X5723448Y1333484D02*
X5791159D01*
Y1316556D01*
X5723448Y1248844D01*
Y1231917D01*
X16029939Y4528820D02*
Y4630387D01*
X16080724D01*
X16097652Y4613459D01*
Y4579603D01*
X16080724Y4562676D01*
X16029939D01*
X16063795D02*
X16097652Y4528820D01*
X16131506D02*
X16165363D01*
X16148434D01*
Y4630387D01*
X16131506Y4613459D01*
X16283858Y4630387D02*
X16250002Y4613459D01*
X16216147Y4579603D01*
Y4545748D01*
X16233073Y4528820D01*
X16266930D01*
X16283858Y4545748D01*
Y4562676D01*
X16266930Y4579603D01*
X16216147D01*
X12750841Y4495817D02*
Y4597384D01*
X12801625D01*
X12818552Y4580456D01*
Y4546600D01*
X12801625Y4529672D01*
X12750841D01*
X12784697D02*
X12818552Y4495817D01*
X12852408D02*
X12886264D01*
X12869336D01*
Y4597384D01*
X12852408Y4580456D01*
X13004759Y4597384D02*
X12937048D01*
Y4546600D01*
X12970903Y4563528D01*
X12987831D01*
X13004759Y4546600D01*
Y4512744D01*
X12987831Y4495817D01*
X12953976D01*
X12937048Y4512744D01*
X8801141Y4470417D02*
Y4571984D01*
X8851925D01*
X8868852Y4555056D01*
Y4521200D01*
X8851925Y4504272D01*
X8801141D01*
X8834997D02*
X8868852Y4470417D01*
X8902708D02*
X8936564D01*
X8919636D01*
Y4571984D01*
X8902708Y4555056D01*
X9038131Y4470417D02*
Y4571984D01*
X8987348Y4521200D01*
X9055059D01*
X5590540Y4516120D02*
Y4617687D01*
X5641323D01*
X5658251Y4600759D01*
Y4566903D01*
X5641323Y4549976D01*
X5590540D01*
X5624396D02*
X5658251Y4516120D01*
X5692107D02*
X5725963D01*
X5709035D01*
Y4617687D01*
X5692107Y4600759D01*
X5776747D02*
X5793674Y4617687D01*
X5827530D01*
X5844458Y4600759D01*
Y4583831D01*
X5827530Y4566903D01*
X5810602D01*
X5827530D01*
X5844458Y4549976D01*
Y4533048D01*
X5827530Y4516120D01*
X5793674D01*
X5776747Y4533048D01*
X16029939Y7754620D02*
Y7856187D01*
X16080724D01*
X16097652Y7839259D01*
Y7805403D01*
X16080724Y7788476D01*
X16029939D01*
X16063795D02*
X16097652Y7754620D01*
X16131506D02*
X16165363D01*
X16148434D01*
Y7856187D01*
X16131506Y7839259D01*
X16283858Y7754620D02*
X16216147D01*
X16283858Y7822331D01*
Y7839259D01*
X16266930Y7856187D01*
X16233073D01*
X16216147Y7839259D01*
X12767769Y7747017D02*
Y7848584D01*
X12818552D01*
X12835480Y7831656D01*
Y7797800D01*
X12818552Y7780872D01*
X12767769D01*
X12801625D02*
X12835480Y7747017D01*
X12869336D02*
X12903192D01*
X12886264D01*
Y7848584D01*
X12869336Y7831656D01*
X12953976Y7747017D02*
X12987831D01*
X12970903D01*
Y7848584D01*
X12953976Y7831656D01*
X8849401Y7739397D02*
Y7840964D01*
X8900185D01*
X8917112Y7824036D01*
Y7790180D01*
X8900185Y7773252D01*
X8849401D01*
X8883257D02*
X8917112Y7739397D01*
X8950968D02*
X8984824D01*
X8967896D01*
Y7840964D01*
X8950968Y7824036D01*
X9035608D02*
X9052536Y7840964D01*
X9086391D01*
X9103319Y7824036D01*
Y7756324D01*
X9086391Y7739397D01*
X9052536D01*
X9035608Y7756324D01*
Y7824036D01*
X5622741Y7747017D02*
Y7848584D01*
X5673524D01*
X5690452Y7831656D01*
Y7797800D01*
X5673524Y7780872D01*
X5622741D01*
X5656597D02*
X5690452Y7747017D01*
X5724308Y7763944D02*
X5741236Y7747017D01*
X5775092D01*
X5792019Y7763944D01*
Y7831656D01*
X5775092Y7848584D01*
X5741236D01*
X5724308Y7831656D01*
Y7814728D01*
X5741236Y7797800D01*
X5792019D01*
X16024042Y10985517D02*
Y11087084D01*
X16074825D01*
X16091753Y11070156D01*
Y11036300D01*
X16074825Y11019372D01*
X16024042D01*
X16057896D02*
X16091753Y10985517D01*
X16125607Y11070156D02*
X16142535Y11087084D01*
X16176392D01*
X16193320Y11070156D01*
Y11053228D01*
X16176392Y11036300D01*
X16193320Y11019372D01*
Y11002444D01*
X16176392Y10985517D01*
X16142535D01*
X16125607Y11002444D01*
Y11019372D01*
X16142535Y11036300D01*
X16125607Y11053228D01*
Y11070156D01*
X16142535Y11036300D02*
X16176392D01*
X12767761Y10990597D02*
Y11092164D01*
X12818544D01*
X12835472Y11075236D01*
Y11041380D01*
X12818544Y11024452D01*
X12767761D01*
X12801617D02*
X12835472Y10990597D01*
X12869328Y11092164D02*
X12937039D01*
Y11075236D01*
X12869328Y11007524D01*
Y10990597D01*
X8934901Y11005837D02*
Y11107404D01*
X8985684D01*
X9002612Y11090476D01*
Y11056620D01*
X8985684Y11039692D01*
X8934901D01*
X8968757D02*
X9002612Y11005837D01*
X9104179Y11107404D02*
X9070324Y11090476D01*
X9036468Y11056620D01*
Y11022764D01*
X9053396Y11005837D01*
X9087252D01*
X9104179Y11022764D01*
Y11039692D01*
X9087252Y11056620D01*
X9036468D01*
X5597341Y10980437D02*
Y11082004D01*
X5648124D01*
X5665052Y11065076D01*
Y11031220D01*
X5648124Y11014292D01*
X5597341D01*
X5631197D02*
X5665052Y10980437D01*
X5766619Y11082004D02*
X5698908D01*
Y11031220D01*
X5732764Y11048148D01*
X5749692D01*
X5766619Y11031220D01*
Y10997364D01*
X5749692Y10980437D01*
X5715836D01*
X5698908Y10997364D01*
X4728661Y16395717D02*
Y16497284D01*
X4779444D01*
X4796372Y16480356D01*
Y16446500D01*
X4779444Y16429572D01*
X4728661D01*
X4762517D02*
X4796372Y16395717D01*
X4881012D02*
Y16497284D01*
X4830228Y16446500D01*
X4897939D01*
X4728661Y16687817D02*
Y16789384D01*
X4779444D01*
X4796372Y16772456D01*
Y16738600D01*
X4779444Y16721672D01*
X4728661D01*
X4762517D02*
X4796372Y16687817D01*
X4830228Y16772456D02*
X4847156Y16789384D01*
X4881012D01*
X4897939Y16772456D01*
Y16755528D01*
X4881012Y16738600D01*
X4864084D01*
X4881012D01*
X4897939Y16721672D01*
Y16704744D01*
X4881012Y16687817D01*
X4847156D01*
X4830228Y16704744D01*
X6735261Y16738617D02*
Y16840184D01*
X6786044D01*
X6802972Y16823256D01*
Y16789400D01*
X6786044Y16772472D01*
X6735261D01*
X6769117D02*
X6802972Y16738617D01*
X6904539D02*
X6836828D01*
X6904539Y16806328D01*
Y16823256D01*
X6887612Y16840184D01*
X6853756D01*
X6836828Y16823256D01*
X5444089Y16730516D02*
Y16832085D01*
X5494872D01*
X5511800Y16815157D01*
Y16781300D01*
X5494872Y16764372D01*
X5444089D01*
X5477944D02*
X5511800Y16730516D01*
X5545656D02*
X5579512D01*
X5562584D01*
Y16832085D01*
X5545656Y16815157D01*
X10058400Y14274767D02*
X10092256D01*
X10075328D01*
Y14173199D01*
X10058400D01*
X10092256D01*
X10193823Y14274767D02*
X10159967D01*
X10143039Y14257838D01*
Y14190128D01*
X10159967Y14173199D01*
X10193823D01*
X10210751Y14190128D01*
Y14257838D01*
X10193823Y14274767D01*
X10312318D02*
X10278462Y14257838D01*
X10244607Y14223982D01*
Y14190128D01*
X10261534Y14173199D01*
X10295390D01*
X10312318Y14190128D01*
Y14207056D01*
X10295390Y14223982D01*
X10244607D01*
X9753600Y14274767D02*
X9787456D01*
X9770528D01*
Y14173199D01*
X9753600D01*
X9787456D01*
X9889023Y14274767D02*
X9855167D01*
X9838239Y14257838D01*
Y14190128D01*
X9855167Y14173199D01*
X9889023D01*
X9905951Y14190128D01*
Y14257838D01*
X9889023Y14274767D01*
X9990590Y14173199D02*
Y14274767D01*
X9939807Y14223982D01*
X10007518D01*
X9410700Y14274767D02*
X9444556D01*
X9427628D01*
Y14173199D01*
X9410700D01*
X9444556D01*
X9546123Y14274767D02*
X9512267D01*
X9495339Y14257838D01*
Y14190128D01*
X9512267Y14173199D01*
X9546123D01*
X9563051Y14190128D01*
Y14257838D01*
X9546123Y14274767D01*
X9664618Y14173199D02*
X9596907D01*
X9664618Y14240910D01*
Y14257838D01*
X9647690Y14274767D01*
X9613834D01*
X9596907Y14257838D01*
X9093200Y14287466D02*
X9127056D01*
X9110128D01*
Y14185899D01*
X9093200D01*
X9127056D01*
X9228623Y14287466D02*
X9194767D01*
X9177839Y14270538D01*
Y14202827D01*
X9194767Y14185899D01*
X9228623D01*
X9245551Y14202827D01*
Y14270538D01*
X9228623Y14287466D01*
X9279407Y14185899D02*
X9313262D01*
X9296334D01*
Y14287466D01*
X9279407Y14270538D01*
X4838716Y15468584D02*
X4771005D01*
Y15417799D01*
X4804861D01*
X4771005D01*
Y15367017D01*
X4872572Y15468584D02*
Y15367017D01*
X4923356D01*
X4940283Y15383945D01*
Y15400871D01*
X4923356Y15417799D01*
X4872572D01*
X4923356D01*
X4940283Y15434727D01*
Y15451656D01*
X4923356Y15468584D01*
X4872572D01*
X4974139Y15367017D02*
X5007995D01*
X4991067D01*
Y15468584D01*
X4974139Y15451656D01*
X6367941Y2762684D02*
Y2661117D01*
X6418725D01*
X6435652Y2678044D01*
Y2745756D01*
X6418725Y2762684D01*
X6367941D01*
X6469508Y2661117D02*
X6503364D01*
X6486436D01*
Y2762684D01*
X6469508Y2745756D01*
X6554148D02*
X6571076Y2762684D01*
X6604931D01*
X6621859Y2745756D01*
Y2728828D01*
X6604931Y2711900D01*
X6621859Y2694972D01*
Y2678044D01*
X6604931Y2661117D01*
X6571076D01*
X6554148Y2678044D01*
Y2694972D01*
X6571076Y2711900D01*
X6554148Y2728828D01*
Y2745756D01*
X6571076Y2711900D02*
X6604931D01*
X9579841Y2775384D02*
Y2673817D01*
X9630625D01*
X9647552Y2690744D01*
Y2758456D01*
X9630625Y2775384D01*
X9579841D01*
X9681408Y2673817D02*
X9715264D01*
X9698336D01*
Y2775384D01*
X9681408Y2758456D01*
X9766048Y2775384D02*
X9833759D01*
Y2758456D01*
X9766048Y2690744D01*
Y2673817D01*
X12893341Y2800784D02*
Y2699217D01*
X12944125D01*
X12961053Y2716144D01*
Y2783856D01*
X12944125Y2800784D01*
X12893341D01*
X12994908Y2699217D02*
X13028764D01*
X13011836D01*
Y2800784D01*
X12994908Y2783856D01*
X13147260Y2800784D02*
X13113403Y2783856D01*
X13079549Y2750000D01*
Y2716144D01*
X13096477Y2699217D01*
X13130331D01*
X13147260Y2716144D01*
Y2733072D01*
X13130331Y2750000D01*
X13079549D01*
X16159741Y2800884D02*
Y2699317D01*
X16210526D01*
X16227452Y2716245D01*
Y2783956D01*
X16210526Y2800884D01*
X16159741D01*
X16261308Y2699317D02*
X16295164D01*
X16278236D01*
Y2800884D01*
X16261308Y2783956D01*
X16413660Y2800884D02*
X16345947D01*
Y2750100D01*
X16379803Y2767028D01*
X16396732D01*
X16413660Y2750100D01*
Y2716245D01*
X16396732Y2699317D01*
X16362875D01*
X16345947Y2716245D01*
X16117941Y6388084D02*
Y6286517D01*
X16168726D01*
X16185652Y6303444D01*
Y6371156D01*
X16168726Y6388084D01*
X16117941D01*
X16219508Y6286517D02*
X16253365D01*
X16236436D01*
Y6388084D01*
X16219508Y6371156D01*
X16354932Y6286517D02*
Y6388084D01*
X16304147Y6337300D01*
X16371860D01*
X12906041Y6388084D02*
Y6286517D01*
X12956825D01*
X12973753Y6303444D01*
Y6371156D01*
X12956825Y6388084D01*
X12906041D01*
X13007608Y6286517D02*
X13041464D01*
X13024536D01*
Y6388084D01*
X13007608Y6371156D01*
X13092249D02*
X13109177Y6388084D01*
X13143031D01*
X13159959Y6371156D01*
Y6354228D01*
X13143031Y6337300D01*
X13126105D01*
X13143031D01*
X13159959Y6320372D01*
Y6303444D01*
X13143031Y6286517D01*
X13109177D01*
X13092249Y6303444D01*
X9643341Y6388084D02*
Y6286517D01*
X9694125D01*
X9711052Y6303444D01*
Y6371156D01*
X9694125Y6388084D01*
X9643341D01*
X9744908Y6286517D02*
X9778764D01*
X9761836D01*
Y6388084D01*
X9744908Y6371156D01*
X9897259Y6286517D02*
X9829548D01*
X9897259Y6354228D01*
Y6371156D01*
X9880331Y6388084D01*
X9846476D01*
X9829548Y6371156D01*
X6410269Y6400784D02*
Y6299217D01*
X6461052D01*
X6477980Y6316144D01*
Y6383856D01*
X6461052Y6400784D01*
X6410269D01*
X6511836Y6299217D02*
X6545692D01*
X6528764D01*
Y6400784D01*
X6511836Y6383856D01*
X6596476Y6299217D02*
X6630331D01*
X6613403D01*
Y6400784D01*
X6596476Y6383856D01*
X6438941Y9376084D02*
Y9274516D01*
X6489725D01*
X6506652Y9291444D01*
Y9359156D01*
X6489725Y9376084D01*
X6438941D01*
X6540508Y9274516D02*
X6574364D01*
X6557436D01*
Y9376084D01*
X6540508Y9359156D01*
X6625148D02*
X6642076Y9376084D01*
X6675931D01*
X6692859Y9359156D01*
Y9291444D01*
X6675931Y9274516D01*
X6642076D01*
X6625148Y9291444D01*
Y9359156D01*
X8754561Y9347184D02*
Y9245617D01*
X8805344D01*
X8822272Y9262544D01*
Y9330256D01*
X8805344Y9347184D01*
X8754561D01*
X8856128Y9262544D02*
X8873056Y9245617D01*
X8906912D01*
X8923839Y9262544D01*
Y9330256D01*
X8906912Y9347184D01*
X8873056D01*
X8856128Y9330256D01*
Y9313328D01*
X8873056Y9296400D01*
X8923839D01*
X12920161Y9363484D02*
Y9261916D01*
X12970944D01*
X12987872Y9278844D01*
Y9346556D01*
X12970944Y9363484D01*
X12920161D01*
X13021729Y9346556D02*
X13038657Y9363484D01*
X13072511D01*
X13089439Y9346556D01*
Y9329628D01*
X13072511Y9312700D01*
X13089439Y9295772D01*
Y9278844D01*
X13072511Y9261916D01*
X13038657D01*
X13021729Y9278844D01*
Y9295772D01*
X13038657Y9312700D01*
X13021729Y9329628D01*
Y9346556D01*
X13038657Y9312700D02*
X13072511D01*
X16222160Y9338084D02*
Y9236516D01*
X16272945D01*
X16289873Y9253444D01*
Y9321156D01*
X16272945Y9338084D01*
X16222160D01*
X16323727D02*
X16391438D01*
Y9321156D01*
X16323727Y9253444D01*
Y9236516D01*
X15676060Y13131784D02*
Y13030217D01*
X15726843D01*
X15743771Y13047144D01*
Y13114856D01*
X15726843Y13131784D01*
X15676060D01*
X15845338D02*
X15811484Y13114856D01*
X15777628Y13081000D01*
Y13047144D01*
X15794556Y13030217D01*
X15828412D01*
X15845338Y13047144D01*
Y13064072D01*
X15828412Y13081000D01*
X15777628D01*
X12462961Y13131784D02*
Y13030217D01*
X12513744D01*
X12530672Y13047144D01*
Y13114856D01*
X12513744Y13131784D01*
X12462961D01*
X12632239D02*
X12564528D01*
Y13081000D01*
X12598384Y13097928D01*
X12615312D01*
X12632239Y13081000D01*
Y13047144D01*
X12615312Y13030217D01*
X12581456D01*
X12564528Y13047144D01*
X9194800Y13139388D02*
Y13037820D01*
X9245583D01*
X9262511Y13054749D01*
Y13122459D01*
X9245583Y13139388D01*
X9194800D01*
X9347151Y13037820D02*
Y13139388D01*
X9296367Y13088603D01*
X9364079D01*
X5973261Y13131784D02*
Y13030217D01*
X6024044D01*
X6040972Y13047144D01*
Y13114856D01*
X6024044Y13131784D01*
X5973261D01*
X6074828Y13114856D02*
X6091756Y13131784D01*
X6125612D01*
X6142539Y13114856D01*
Y13097928D01*
X6125612Y13081000D01*
X6108684D01*
X6125612D01*
X6142539Y13064072D01*
Y13047144D01*
X6125612Y13030217D01*
X6091756D01*
X6074828Y13047144D01*
X6282288Y3246956D02*
X6265361Y3263884D01*
X6231505D01*
X6214577Y3246956D01*
Y3179244D01*
X6231505Y3162317D01*
X6265361D01*
X6282288Y3179244D01*
X6383856Y3162317D02*
X6316144D01*
X6383856Y3230028D01*
Y3246956D01*
X6366928Y3263884D01*
X6333072D01*
X6316144Y3246956D01*
X6485423Y3162317D02*
X6417712D01*
X6485423Y3230028D01*
Y3246956D01*
X6468495Y3263884D01*
X6434639D01*
X6417712Y3246956D01*
X9554416Y3233856D02*
X9537488Y3250784D01*
X9503633D01*
X9486705Y3233856D01*
Y3166144D01*
X9503633Y3149216D01*
X9537488D01*
X9554416Y3166144D01*
X9655983Y3149216D02*
X9588272D01*
X9655983Y3216928D01*
Y3233856D01*
X9639056Y3250784D01*
X9605200D01*
X9588272Y3233856D01*
X9689839Y3149216D02*
X9723695D01*
X9706767D01*
Y3250784D01*
X9689839Y3233856D01*
X12812889D02*
X12795961Y3250784D01*
X12762105D01*
X12745177Y3233856D01*
Y3166144D01*
X12762105Y3149216D01*
X12795961D01*
X12812889Y3166144D01*
X12914456Y3149216D02*
X12846744D01*
X12914456Y3216928D01*
Y3233856D01*
X12897528Y3250784D01*
X12863672D01*
X12846744Y3233856D01*
X12948312D02*
X12965239Y3250784D01*
X12999095D01*
X13016023Y3233856D01*
Y3166144D01*
X12999095Y3149216D01*
X12965239D01*
X12948312Y3166144D01*
Y3233856D01*
X16084052Y3246556D02*
X16067125Y3263484D01*
X16033269D01*
X16016341Y3246556D01*
Y3178844D01*
X16033269Y3161916D01*
X16067125D01*
X16084052Y3178844D01*
X16117908Y3161916D02*
X16151764D01*
X16134836D01*
Y3263484D01*
X16117908Y3246556D01*
X16202548Y3178844D02*
X16219476Y3161916D01*
X16253331D01*
X16270259Y3178844D01*
Y3246556D01*
X16253331Y3263484D01*
X16219476D01*
X16202548Y3246556D01*
Y3229628D01*
X16219476Y3212700D01*
X16270259D01*
X16097652Y5871156D02*
X16080725Y5888084D01*
X16046869D01*
X16029941Y5871156D01*
Y5803444D01*
X16046869Y5786516D01*
X16080725D01*
X16097652Y5803444D01*
X16131508Y5786516D02*
X16165364D01*
X16148436D01*
Y5888084D01*
X16131508Y5871156D01*
X16216148D02*
X16233075Y5888084D01*
X16266931D01*
X16283859Y5871156D01*
Y5854228D01*
X16266931Y5837300D01*
X16283859Y5820372D01*
Y5803444D01*
X16266931Y5786516D01*
X16233075D01*
X16216148Y5803444D01*
Y5820372D01*
X16233075Y5837300D01*
X16216148Y5854228D01*
Y5871156D01*
X16233075Y5837300D02*
X16266931D01*
X12834053Y5896556D02*
X12817125Y5913484D01*
X12783269D01*
X12766341Y5896556D01*
Y5828844D01*
X12783269Y5811916D01*
X12817125D01*
X12834053Y5828844D01*
X12867908Y5811916D02*
X12901764D01*
X12884836D01*
Y5913484D01*
X12867908Y5896556D01*
X12952548Y5913484D02*
X13020259D01*
Y5896556D01*
X12952548Y5828844D01*
Y5811916D01*
X9584052Y5883856D02*
X9567125Y5900784D01*
X9533269D01*
X9516341Y5883856D01*
Y5816144D01*
X9533269Y5799216D01*
X9567125D01*
X9584052Y5816144D01*
X9617908Y5799216D02*
X9651764D01*
X9634836D01*
Y5900784D01*
X9617908Y5883856D01*
X9770259Y5900784D02*
X9736403Y5883856D01*
X9702548Y5850000D01*
Y5816144D01*
X9719476Y5799216D01*
X9753331D01*
X9770259Y5816144D01*
Y5833072D01*
X9753331Y5850000D01*
X9702548D01*
X6354252Y5883856D02*
X6337325Y5900784D01*
X6303469D01*
X6286541Y5883856D01*
Y5816144D01*
X6303469Y5799216D01*
X6337325D01*
X6354252Y5816144D01*
X6388108Y5799216D02*
X6421964D01*
X6405036D01*
Y5900784D01*
X6388108Y5883856D01*
X6540459Y5900784D02*
X6472748D01*
Y5850000D01*
X6506603Y5866928D01*
X6523531D01*
X6540459Y5850000D01*
Y5816144D01*
X6523531Y5799216D01*
X6489676D01*
X6472748Y5816144D01*
X6379652Y9846556D02*
X6362725Y9863484D01*
X6328869D01*
X6311941Y9846556D01*
Y9778844D01*
X6328869Y9761916D01*
X6362725D01*
X6379652Y9778844D01*
X6413508Y9761916D02*
X6447364D01*
X6430436D01*
Y9863484D01*
X6413508Y9846556D01*
X6548931Y9761916D02*
Y9863484D01*
X6498148Y9812700D01*
X6565859D01*
X9567352Y9846556D02*
X9550425Y9863484D01*
X9516569D01*
X9499641Y9846556D01*
Y9778844D01*
X9516569Y9761916D01*
X9550425D01*
X9567352Y9778844D01*
X9601208Y9761916D02*
X9635064D01*
X9618136D01*
Y9863484D01*
X9601208Y9846556D01*
X9685848D02*
X9702776Y9863484D01*
X9736631D01*
X9753559Y9846556D01*
Y9829628D01*
X9736631Y9812700D01*
X9719703D01*
X9736631D01*
X9753559Y9795772D01*
Y9778844D01*
X9736631Y9761916D01*
X9702776D01*
X9685848Y9778844D01*
X12831252Y9846556D02*
X12814325Y9863484D01*
X12780469D01*
X12763541Y9846556D01*
Y9778844D01*
X12780469Y9761916D01*
X12814325D01*
X12831252Y9778844D01*
X12865108Y9761916D02*
X12898964D01*
X12882036D01*
Y9863484D01*
X12865108Y9846556D01*
X13017459Y9761916D02*
X12949748D01*
X13017459Y9829628D01*
Y9846556D01*
X13000531Y9863484D01*
X12966676D01*
X12949748Y9846556D01*
X16112080Y9859256D02*
X16095152Y9876184D01*
X16061298D01*
X16044370Y9859256D01*
Y9791544D01*
X16061298Y9774616D01*
X16095152D01*
X16112080Y9791544D01*
X16145937Y9774616D02*
X16179791D01*
X16162865D01*
Y9876184D01*
X16145937Y9859256D01*
X16230576Y9774616D02*
X16264432D01*
X16247504D01*
Y9876184D01*
X16230576Y9859256D01*
X16058652Y12296556D02*
X16041725Y12313484D01*
X16007869D01*
X15990941Y12296556D01*
Y12228844D01*
X16007869Y12211916D01*
X16041725D01*
X16058652Y12228844D01*
X16092508Y12211916D02*
X16126364D01*
X16109436D01*
Y12313484D01*
X16092508Y12296556D01*
X16177148D02*
X16194077Y12313484D01*
X16227931D01*
X16244859Y12296556D01*
Y12228844D01*
X16227931Y12211916D01*
X16194077D01*
X16177148Y12228844D01*
Y12296556D01*
X12848172Y12271156D02*
X12831244Y12288084D01*
X12797389D01*
X12780461Y12271156D01*
Y12203444D01*
X12797389Y12186516D01*
X12831244D01*
X12848172Y12203444D01*
X12882028D02*
X12898956Y12186516D01*
X12932812D01*
X12949739Y12203444D01*
Y12271156D01*
X12932812Y12288084D01*
X12898956D01*
X12882028Y12271156D01*
Y12254228D01*
X12898956Y12237300D01*
X12949739D01*
X9622372Y12327456D02*
X9605444Y12344384D01*
X9571589D01*
X9554661Y12327456D01*
Y12259744D01*
X9571589Y12242817D01*
X9605444D01*
X9622372Y12259744D01*
X9656228Y12327456D02*
X9673156Y12344384D01*
X9707012D01*
X9723939Y12327456D01*
Y12310528D01*
X9707012Y12293600D01*
X9723939Y12276672D01*
Y12259744D01*
X9707012Y12242817D01*
X9673156D01*
X9656228Y12259744D01*
Y12276672D01*
X9673156Y12293600D01*
X9656228Y12310528D01*
Y12327456D01*
X9673156Y12293600D02*
X9707012D01*
X6310212Y12329996D02*
X6293284Y12346924D01*
X6259429D01*
X6242501Y12329996D01*
Y12262284D01*
X6259429Y12245357D01*
X6293284D01*
X6310212Y12262284D01*
X6344068Y12346924D02*
X6411779D01*
Y12329996D01*
X6344068Y12262284D01*
Y12245357D01*
X4948772Y14118156D02*
X4931844Y14135085D01*
X4897989D01*
X4881061Y14118156D01*
Y14050444D01*
X4897989Y14033517D01*
X4931844D01*
X4948772Y14050444D01*
X5050339Y14135085D02*
X5016484Y14118156D01*
X4982628Y14084300D01*
Y14050444D01*
X4999556Y14033517D01*
X5033412D01*
X5050339Y14050444D01*
Y14067372D01*
X5033412Y14084300D01*
X4982628D01*
X5393272Y15502457D02*
X5376344Y15519383D01*
X5342489D01*
X5325561Y15502457D01*
Y15434744D01*
X5342489Y15417818D01*
X5376344D01*
X5393272Y15434744D01*
X5477912Y15417818D02*
Y15519383D01*
X5427128Y15468600D01*
X5494839D01*
X4364572Y15540556D02*
X4347644Y15557484D01*
X4313789D01*
X4296861Y15540556D01*
Y15472844D01*
X4313789Y15455917D01*
X4347644D01*
X4364572Y15472844D01*
X4398428Y15540556D02*
X4415356Y15557484D01*
X4449212D01*
X4466139Y15540556D01*
Y15523628D01*
X4449212Y15506700D01*
X4432284D01*
X4449212D01*
X4466139Y15489772D01*
Y15472844D01*
X4449212Y15455917D01*
X4415356D01*
X4398428Y15472844D01*
X6519311Y16830859D02*
X6502383Y16847787D01*
X6468528D01*
X6451600Y16830859D01*
Y16763148D01*
X6468528Y16746220D01*
X6502383D01*
X6519311Y16763148D01*
X6620879Y16746220D02*
X6553167D01*
X6620879Y16813931D01*
Y16830859D01*
X6603951Y16847787D01*
X6570095D01*
X6553167Y16830859D01*
X5778500Y16797856D02*
X5761572Y16814784D01*
X5727717D01*
X5710789Y16797856D01*
Y16730144D01*
X5727717Y16713217D01*
X5761572D01*
X5778500Y16730144D01*
X5812356Y16713217D02*
X5846212D01*
X5829284D01*
Y16814784D01*
X5812356Y16797856D01*
%TF.MD5,132a6679566299751ada64fb107aff6a*%
M02*
