%TF.GenerationSoftware,Altium Limited,Altium Designer,24.7.2 (38)*%
G04 Layer_Color=32896*
%FSLAX45Y45*%
%MOMM*%
%TF.SameCoordinates,74662405-AD21-4814-813C-A76D1C426129*%
%TF.FilePolarity,Positive*%
%TF.FileFunction,Legend,Bot*%
%TF.Part,Single*%
G01*
G75*
%TA.AperFunction,NonConductor*%
%ADD43C,0.25400*%
D43*
X7903628Y14847136D02*
X7920556Y14864064D01*
X7954411D01*
X7971339Y14847136D01*
Y14779424D01*
X7954411Y14762497D01*
X7920556D01*
X7903628Y14779424D01*
X7802061Y14864064D02*
X7869772D01*
Y14813280D01*
X7835916Y14830208D01*
X7818988D01*
X7802061Y14813280D01*
Y14779424D01*
X7818988Y14762497D01*
X7852844D01*
X7869772Y14779424D01*
X12234312Y3958156D02*
X12251239Y3975084D01*
X12285095D01*
X12302023Y3958156D01*
Y3890444D01*
X12285095Y3873517D01*
X12251239D01*
X12234312Y3890444D01*
X12132744Y3873517D02*
X12200456D01*
X12132744Y3941228D01*
Y3958156D01*
X12149672Y3975084D01*
X12183528D01*
X12200456Y3958156D01*
X12048105Y3873517D02*
Y3975084D01*
X12098888Y3924300D01*
X12031177D01*
X12323212Y10448756D02*
X12340139Y10465684D01*
X12373995D01*
X12390923Y10448756D01*
Y10381044D01*
X12373995Y10364116D01*
X12340139D01*
X12323212Y10381044D01*
X12221644Y10364116D02*
X12289356D01*
X12221644Y10431828D01*
Y10448756D01*
X12238572Y10465684D01*
X12272428D01*
X12289356Y10448756D01*
X12187788D02*
X12170861Y10465684D01*
X12137005D01*
X12120077Y10448756D01*
Y10431828D01*
X12137005Y10414900D01*
X12153933D01*
X12137005D01*
X12120077Y10397972D01*
Y10381044D01*
X12137005Y10364116D01*
X12170861D01*
X12187788Y10381044D01*
%TF.MD5,7c00710b8baf2c1c41f26c0f90659ba1*%
M02*
